# xmcd
#
# Track frame offsets:
#	150
#	13834
#	26225
#	37916
#	51623
#	65454
#	78975
#	93398
#	107722
#	121743
#	134687
#	145867
#	157519
#	168983
#	181592
#	191597
#	201908
#	213012
#	222217
#	234374
#	245322
#	256367
#	267592
#
# Disc length: 3722 seconds
#
# Revision: 1
# Processed by: cddbd v1.5.2PL0 Copyright (c) Steve Scherf et al.
# Submitted via: audiograbber 1.83.01
#
DISCID=3f0e8817
DTITLE=ernest tubb - driftwood on the river
DYEAR=1900
DGENRE=
TTITLE0=driftwood on the river
TTITLE1=hillbilly fever no. 2
TTITLE2=g-i-r-l spells trouble
TTITLE3=goodnight irene
TTITLE4=i'm lonely and blue
TTITLE5=don't stay too long
TTITLE6=the strange little girl
TTITLE7=hey la la
TTITLE8=missing in action
TTITLE9=too old to cut the mustard
TTITLE10=somebody's stolen my honey
TTITLE11=fortunes in memories
TTITLE12=no helb wanted no. 2
TTITLE13=divorce granted
TTITLE14=jealous loving heart
TTITLE15=two glasses, joe
TTITLE16=journey's end
TTITLE17=kansas city blues
TTITLE18=it's a lonely world
TTITLE19=(i'm gonna make my home) a million miles from here
TTITLE20=the yellow rose of texas
TTITLE21=thirty days
TTITLE22=answer the phone
EXTD=
EXTT0=
EXTT1=
EXTT2=
EXTT3=
EXTT4=
EXTT5=
EXTT6=
EXTT7=
EXTT8=
EXTT9=
EXTT10=
EXTT11=
EXTT12=
EXTT13=
EXTT14=
EXTT15=
EXTT16=
EXTT17=
EXTT18=
EXTT19=
EXTT20=
EXTT21=
EXTT22=
PLAYORDER=
